<svg xmlns="http://www.w3.org/2000/svg" xmlns:xlink="http://www.w3.org/1999/xlink" version="1.1" width="1080" height="1080" viewBox="0 0 1080 1080" xml:space="preserve">
<desc>Created with Fabric.js 3.5.0</desc>
<defs>
</defs>
<rect x="0" y="0" width="100%" height="100%" fill="#ffffff"/>
<g transform="matrix(3.8352 0 0 3.8352 539.9965 539.9965)" id="787116">
<g style="" vector-effect="non-scaling-stroke">
		<g transform="matrix(1 0 0 1 14 -102.1)" id="Layer_1">
<circle style="stroke: none; stroke-width: 1; stroke-dasharray: none; stroke-linecap: butt; stroke-dashoffset: 0; stroke-linejoin: miter; stroke-miterlimit: 4; is-custom-font: none; font-file-url: none; fill: rgb(0,0,0); fill-rule: nonzero; opacity: 1;" cx="0" cy="0" r="24.8"/>
</g>
		<g transform="matrix(1 0 0 1 -12.8996 18.0375)" id="Layer_1">
<path style="stroke: none; stroke-width: 1; stroke-dasharray: none; stroke-linecap: butt; stroke-dashoffset: 0; stroke-linejoin: miter; stroke-miterlimit: 4; is-custom-font: none; font-file-url: none; fill: rgb(0,0,0); fill-rule: nonzero; opacity: 1;" transform=" translate(-115.1004, -146.0375)" d="M 182.8 45 c -10.6 0 -19.3 9.4 -19.3 20.9 c 0 5.9 2.2 11.2 5.8 15 c 3.2 3.4 7.6 9.1 12.4 9.8 v 27.2 L 143 100 l -15.5 -42.5 c -0.9 -2.2 -2.2 -4.3 -4 -6.2 c -1.6 -1.6 -7.1 -7.1 -8.7 -8.7 c -7.1 -7.1 -18.9 -7.1 -26.4 0 L 33.8 97.2 c -3.7 3.7 -5.6 8.4 -5.6 13.3 v 128.8 c 0 8.7 6.8 15.5 15.5 15.5 c 8.7 0 15.5 -6.8 15.5 -15.5 V 137.6 c 3.4 -0.6 6.8 -2.5 9.6 -5 l 46.2 -46.2 l 9.3 25.5 c 0.9 2.8 3.1 5 5.6 6.2 l 45 21.1 c 5.6 2.5 11.8 0.3 14.6 -5.3 c 2.2 -5.9 0 -12.4 -5.6 -14.9 l -0.1 -0.1 V 90.7 c 4.9 -0.7 9.3 -6.5 12.6 -10 c 3.5 -3.8 5.6 -9 5.6 -14.8 C 202.1 54.3 193.5 45 182.8 45 z" stroke-linecap="round"/>
</g>
		<g transform="matrix(1 0 0 1 91.2 -12.8)" id="Layer_1">
<circle style="stroke: none; stroke-width: 1; stroke-dasharray: none; stroke-linecap: butt; stroke-dashoffset: 0; stroke-linejoin: miter; stroke-miterlimit: 4; is-custom-font: none; font-file-url: none; fill: rgb(0,0,0); fill-rule: nonzero; opacity: 1;" cx="0" cy="0" r="14.9"/>
</g>
		<g transform="matrix(1 0 0 1 91.3 67.3)" id="Layer_1">
<path style="stroke: none; stroke-width: 1; stroke-dasharray: none; stroke-linecap: butt; stroke-dashoffset: 0; stroke-linejoin: miter; stroke-miterlimit: 4; is-custom-font: none; font-file-url: none; fill: rgb(0,0,0); fill-rule: nonzero; opacity: 1;" transform=" translate(-219.3, -195.3)" d="M 219.5 135.7 h -0.6 c -9.7 0 -17.5 7.9 -17.5 17.5 v 30 c 0 5.5 2.5 10.3 6.4 13.5 c -0.6 1.4 -0.9 3 -0.9 4.7 v 41.1 c 0 6.8 5.5 12.4 12.4 12.4 c 6.8 0 12.4 -5.5 12.4 -12.4 v -41.1 c 0 -1.7 -0.3 -3.2 -0.9 -4.7 c 3.9 -3.2 6.4 -8.1 6.4 -13.5 v -30 C 237 143.6 229.2 135.7 219.5 135.7 z" stroke-linecap="round"/>
</g>
</g>
</g>
</svg>