<svg xmlns="http://www.w3.org/2000/svg" xmlns:xlink="http://www.w3.org/1999/xlink" version="1.1" width="1080" height="1080" viewBox="0 0 1080 1080" xml:space="preserve">
<desc>Created with Fabric.js 3.5.0</desc>
<defs>
</defs>
<rect x="0" y="0" width="100%" height="100%" fill="#ffffff"/>
<g transform="matrix(-0.4701 0 0 0.4696 540.471 539.9642)" id="979458">
<path style="stroke: none; stroke-width: 1; stroke-dasharray: none; stroke-linecap: butt; stroke-dashoffset: 0; stroke-linejoin: miter; stroke-miterlimit: 4; is-custom-font: none; font-file-url: none; fill: rgb(0,0,0); fill-rule: nonzero; opacity: 1;" vector-effect="non-scaling-stroke" transform=" translate(-1082.2865, -836.8078)" d="M 1400.434 907.371 c -1.001 -11.072 -13.53 -49.698 -14.109 -56.38 c -1.186 -13.696 -7.364 -26.112 -9.402 -39.536 c -0.422 -2.776 -7.81 -14.24 -2.276 -20.472 c 1.153 -1.299 1.986 -3.753 1.627 -5.383 c -2.575 -11.708 8.573 -13.281 13.89 -19.095 c 0.705 -0.771 2.455 -1.117 3.573 -0.899 c 11.256 2.195 22.88 3.922 29.532 15.012 c 3.573 5.958 8.769 10.862 10.86 18.265 c 3.831 -1.339 5.077 -4.331 6.992 -6.666 c 10.129 -12.351 25.845 6.242 14.214 21.488 c -16.784 22.002 -17.269 22.594 -15.583 26.206 c 5.697 12.208 6.376 18.133 20.268 75.12 c 9.15 -4.118 16.345 -10.668 25.298 -13.94 c 2.446 -0.894 3.465 -3.323 1.975 -5.498 c -4.154 -6.061 -3.988 -13.368 -6.016 -20.015 c -4.651 -15.24 -26.667 -6.789 -25.909 -34.775 c 0.127 -4.7 10.627 -9.711 16.17 -8.024 c 4.958 1.508 7.937 7.176 12.716 5.11 c 7.339 -3.172 8.386 -24.373 39.743 -27.984 c 18.124 -2.087 0.302 -18.06 26.214 -31.77 c 2.508 4.642 0.848 9.279 2.298 13.503 c 3.531 10.282 10.521 18.138 17.201 26.275 c 1.889 2.301 4.532 2.23 7.021 2.319 c 16.952 0.605 54.852 11.352 58.759 15.499 c 12.147 12.897 28.162 20.705 41.748 31.761 c 10.496 8.542 24.347 8.841 37.197 10.815 c 4.042 0.621 7.753 -2.475 11.422 -4.298 c 3.214 -1.597 -4.599 -21.988 5.107 -28.077 c 5.331 -3.343 9.807 -10.634 16.173 -9.075 c 8.745 2.142 17.594 5.583 24.845 11.622 c 4.009 3.339 9.957 36.943 -8.669 40.902 c -9.915 2.107 -18.886 7.492 -29.137 8.684 c -2.193 0.255 -4.356 1.619 -5.477 3.598 c -3.495 6.176 -9.718 7.862 -15.747 9.598 c -15.415 4.44 -9.503 4.931 -29.132 5.347 c -48.276 1.022 -40.193 -8.539 -62.486 -1.124 c -15.178 5.048 -27.117 14.756 -37.375 26.779 c -1.83 2.145 -2.668 4.305 -1.681 6.99 c 5.646 15.364 1.454 29.463 -6.242 42.72 c -2.457 4.233 -2.418 7.256 -0.464 11.362 c 34.937 73.449 7.685 100.322 8.902 123.871 c 24.934 -29.401 50.778 -55.622 70.772 -87.107 c 6.272 4.334 72.711 61.362 72.711 61.362 c 24.13 11.847 -11.162 -20.693 -40.064 -120.747 c 89.39 43.69 134.577 59.712 134.577 64.255 c -2.703 -9.215 -39.056 -86.374 -47.556 -104.756 c 46.993 21.509 93.978 49.903 143.022 65.704 c -11.897 -24.599 -22.958 -49.668 -34.416 -74.485 c 8.105 -4.867 4.947 -3.997 121.898 51.009 c 23.204 10.913 21.173 12.357 35.717 0.763 c 2.166 -1.727 3.114 -3.624 2.207 -6.646 c -6.166 -20.56 -13.5 -19.366 -10.952 -31.226 c 38.536 18.524 29.523 18.486 55.236 -0.323 c 1.994 -1.459 3.706 -3.625 6.819 -2.884 c 0.678 23.236 -7.525 32.331 -0.123 36.352 c 8.157 4.432 14.169 11.896 22.789 15.551 c -0.472 3.517 -2.425 5.36 -5.41 5.938 c -6.979 1.35 -12.802 5.761 -19.646 7.334 c -7.361 1.692 -4.718 4.081 -7.471 26.243 c -0.252 2.031 -0.067 4.629 -3.882 5.679 c -11.924 -21.604 -12.364 -24.956 -19.343 -24.249 c -6.054 0.613 -9.501 3.686 -11.481 10.751 c -20.395 72.772 -28.283 121.378 -36.64 140.964 c -16.84 -21.864 -7.592 -12.436 -22.286 -39.252 c -21.1 -38.502 -22.06 -51.052 -27.115 -27.243 c -7.242 34.106 -28.198 96.206 -30.95 115.968 c -0.526 3.776 -2.09 7.769 -4.871 9.863 c -9.792 -13.132 -17.844 -27.413 -26.401 -41.349 c -6.635 -10.805 -20.599 -25.347 -22.516 -38.107 c -0.311 -2.067 -2.278 -3.279 -4.192 -3.322 c -1.998 -0.044 -0.969 -3.009 -14.917 39.44 c -9.83 29.915 -11.653 33.001 -0.505 30.392 c 33.353 -7.803 107.417 47.377 97.678 119.099 c -3.103 22.851 -18.918 49.255 -44.597 63.046 c -22.476 12.072 -46.841 5.135 -61.054 4.807 c -7.984 -0.184 -18.186 -12.66 -22.297 2.13 c -44.963 161.766 -42.604 153.238 -35.772 155.623 c 9.028 3.152 17.248 8.163 26.383 11.229 c 16.542 5.551 17.139 9.224 3.479 40.819 c -3.28 7.587 -7.031 14.941 -8.769 23.154 c -0.99 4.679 -1.999 4.521 -6.457 1.946 c -31.458 -18.176 -62.647 -29.224 -88.525 -43.553 c -95.592 -52.935 -105.675 -43.584 -268.06 -124.283 c -152.317 -75.696 -213.59 -90.654 -268.268 -238.322 c -11.706 -31.614 -19.736 -66.252 -21.147 -76.525 c -1.365 -9.939 1.7 -18.438 1.936 -28.277 c 0.134 -5.599 1.417 -3.034 53.308 -4.068 c 7.638 -0.152 15.682 49.416 18.688 58.79 c 16.189 50.487 38.897 96.835 75.682 135.501 c 16.192 17.02 58.51 45.732 66.013 48.325 c 21.629 7.475 25.069 12.997 29.739 2.328 c 3.582 -8.185 2.779 -14.953 8.02 -31.012 c 2.604 -7.979 0.833 -16.241 -6.383 -19.852 c -12.224 -6.117 -21.954 -15.413 -31.059 -24.783 c -45.158 -46.466 -71.576 -53.759 -91.954 -170.666 c -3.648 -20.927 7.583 -33.254 -23.447 -49.554 c -53.785 -29.582 -108.715 -60.964 -164.669 -86.177 c -12.894 -5.81 -24.471 -14.081 -37.524 -18.987 c -9.605 -3.61 -18.299 -8.788 -26.969 -13.657 c -108.556 -60.969 -239.036 -119.944 -239.036 -119.944 c 7.77 22.42 -0.105 56.055 26.098 103.88 c 5.972 10.899 5.942 14.84 12.637 16.821 c 4.168 1.233 5.316 6.005 8.219 8.9 c 9.254 9.229 19.963 16.662 29.846 25.096 c 13.59 11.597 -0.857 24.117 21.168 40.863 c 7.52 5.717 10.349 12.756 10.722 22.059 c 1.836 45.876 -0.164 54.247 -13.523 48.855 c -37.314 -15.061 -35.711 -15.432 -43.494 -35.409 c -4.147 -10.644 -4.018 -28.098 -19.297 -32.975 c -10.967 -3.501 -3.086 -19.919 -21.315 -24.292 c -4.453 -1.068 -2.154 0.414 -38.394 -56.284 c -15.694 -24.555 -31.135 -49.379 -49.662 -72.026 c -1.591 -1.945 -2.306 -4.662 -4.032 -6.429 c -22.006 -22.529 -38.811 -16.676 -81.397 -61.865 c -42.07 -44.641 -45.166 -58.816 -63.346 -52.7 c -6.905 2.323 -12.758 0.948 -17.271 -4.336 c -27.465 -32.159 -131.78 -56.353 -173.429 -64.369 c -84.061 -16.178 -88.618 -4.312 -132.677 -20.675 c -53.949 -20.036 -55.109 -30.175 -74.74 -39.25 c -6.955 -3.215 -4.076 -13.938 -13.896 -14.282 c -4.834 -0.169 -6.365 12.992 -3.825 15.772 c 13.162 14.41 21.018 33.046 41.141 34.08 c 13.995 0.719 28.942 -0.46 30.205 13.913 c 0.731 8.311 4.039 6.358 24.299 11.903 c 2.462 0.674 4.838 1.653 4.846 4.976 c 0.044 19.438 1.744 38.919 -1.554 58.268 c -1.273 7.468 -2.786 9.811 -8.475 6.196 c -11.594 -7.365 -35.122 -24.083 -52.243 -23.822 c -35.191 0.537 -86.005 -99.851 -133.304 -142.519 c -3.211 -2.896 -5.321 -6.134 -6.223 -10.397 c -13.15 -62.111 4.825 -70.488 67.619 -61.408 c 1.847 0.267 99.158 15.7 99.158 15.7 c 13.449 2.568 27.551 -3.228 26.192 -21.391 c -2.939 -39.299 -0.938 -87.088 10.007 -125.899 c 4.477 -15.874 -5.502 -27.652 -29.73 -107.297 c -3.041 -9.996 -7.406 -19.514 -9.801 -29.744 c -1.362 -5.82 -4.741 -10.782 -9.547 -15.008 c -21.342 -18.764 -75.758 -73.363 -54.66 -87.391 c 55.251 -36.737 108.558 9.539 162.916 -15.701 c 9.495 -4.409 18.168 -28.192 26.435 -41.612 c 32.701 -53.083 51.407 -48.478 49.323 -33.617 c -3.731 26.599 -9.49 33.752 -6.298 47.044 c 2.097 8.731 4.948 10.611 13.409 8.42 c 27.121 -7.023 46.724 -8.889 58.035 -34.53 c 2.52 -5.712 2.126 -3.798 46.337 -37.996 c 8.854 -6.849 26.338 -0.71 18.957 11.913 c -27.032 46.233 -35.756 38.315 -35.042 56.417 c 1.034 26.212 10.628 17.207 19.038 71.417 c 2.294 14.785 -8.448 27.21 -19.237 16.861 c -1.477 -1.416 -29.338 -38.467 -32.42 -42.623 c -4.47 -6.029 -2.658 -5.098 -61.355 14.519 c -48.691 16.273 -47.494 15.872 -46.601 20.1 c 1.152 5.452 5.95 2.844 9.572 2.191 c 11.666 -2.106 19.314 3.983 20.336 16.514 c 1.812 22.219 -22.833 41.126 -31.535 78.77 c -4.237 18.328 0.998 22.301 15.893 54.468 c 4.088 8.827 839.806 454.729 791.521 430.076 c 137.329 70.117 144.87 82.806 182.941 103.203 c 3.754 2.011 9.947 -2.248 9.768 -6.712 c -0.82 -20.378 7.766 -24.252 14.931 -20.158 c 6.215 3.552 8.221 5.922 18.779 44.891 c 1.033 3.814 2.583 6.103 6.2 7.59 C 1388.423 901.554 1393.291 905.989 1400.434 907.371 z M 1351.401 979.263 c -17.421 40.085 -21.902 52.752 -10.925 55.215 c 7.739 1.736 4.257 -18.716 25.96 -49.819 c 1.977 -2.833 5.054 -6.108 4.181 -9.17 c -0.55 -1.927 -3.362 -5.115 -7.087 -5.354 c -3.672 -0.235 0.775 -7.381 -5.521 -6.614 c -2.259 0.275 -14.175 -1.228 -10.037 -5.365 c 2.201 -2.201 0.69 -3.162 -0.695 -4.445 c -1.352 -1.251 -3.266 -1.718 -4.042 -0.037 c -3.578 7.755 -28.097 -9.136 -41.461 -14.52 c -1.222 -5.315 -8.714 -5.434 -9.356 -11.054 c -0.614 -5.37 -3.445 -9.091 -6.866 -13.132 c -3.383 -3.995 0.428 -10.086 -1.782 -14.983 c -1.55 -3.435 -4.477 -1.457 -3.103 -5.625 c 1.479 -4.489 -0.469 -9.263 -4.236 -10.993 c 0 0 -583.057 -326.179 -879.405 -479.186 c -1.04 3.219 -0.317 5.885 1.266 8.37 c 84.536 132.694 143.668 124.156 225.344 152.232 c 46.776 16.08 95.789 45.156 104.622 59.06 c 62.968 99.122 33.773 53.723 25.068 96.314 c -2.856 13.971 -12.571 2.892 111.364 67.195 c 1.012 0.525 420.715 220.684 429.708 223.051 c 6.86 -18.749 5.394 -21.238 20.287 -45.016 C 1318.215 959.748 1316.673 960.841 1351.401 979.263 z M 1456.623 1396.396 c -1.8 5.752 -19.854 -0.858 274.952 134.592 c 11.596 5.328 4.254 -9.636 22.477 -54.493 c 4.365 -10.743 1.688 -13.233 -2.589 -15.38 C 1444.936 1307.258 1475.638 1335.64 1456.623 1396.396 z" stroke-linecap="round"/>
</g>
</svg>