<svg xmlns="http://www.w3.org/2000/svg" xmlns:xlink="http://www.w3.org/1999/xlink" version="1.1" width="1080" height="1080" viewBox="0 0 1080 1080" xml:space="preserve">
<desc>Created with Fabric.js 3.5.0</desc>
<defs>
</defs>
<rect x="0" y="0" width="100%" height="100%" fill="#ffffff"/>
<g transform="matrix(0.5695 0 0 0.5695 539.9733 539.9823)" id="600604">
<g style="" vector-effect="non-scaling-stroke">
		<g transform="matrix(0.1333 0 0 -0.1333 57.7216 -10.6262)">
<path style="stroke: none; stroke-width: 1; stroke-dasharray: none; stroke-linecap: butt; stroke-dashoffset: 0; stroke-linejoin: miter; stroke-miterlimit: 4; is-custom-font: none; font-file-url: none; fill: rgb(0,0,0); fill-rule: nonzero; opacity: 1;" transform=" translate(-6833.4218, -4343.6625)" d="M 7230 8465 c -9 -11 -4 -30 28 -97 c 58 -120 67 -174 47 -289 c -32 -184 -145 -726 -170 -814 c -36 -128 -53 -245 -61 -421 l -7 -154 l -93 90 c -102 99 -168 145 -229 161 c -22 6 -58 22 -79 36 c -30 20 -47 24 -75 19 c -20 -3 -78 -12 -129 -20 c -121 -20 -129 -22 -136 -49 c -3 -12 -23 -44 -43 -72 l -37 -50 l -8 30 c -4 16 -15 106 -24 200 c -9 105 -30 239 -55 350 c -30 142 -109 611 -109 652 c 0 5 19 33 41 63 c 43 56 103 173 115 223 c 9 38 -14 35 -56 -8 c -18 -19 -35 -33 -37 -31 c -3 2 7 27 21 55 c 28 54 33 81 15 81 c -27 0 -71 -47 -123 -132 c -31 -51 -68 -108 -82 -127 c -52 -73 -58 -119 -50 -426 c 3 -154 15 -458 25 -675 c 10 -217 18 -396 16 -398 c -7 -7 -118 42 -155 69 c -29 21 -38 25 -31 12 c 9 -18 5 -19 -57 -16 c -48 2 -60 0 -42 -6 c 14 -5 40 -9 59 -10 c 49 -1 161 -58 161 -81 c 0 -5 -46 -7 -102 -6 c -57 0 -115 -2 -130 -7 c -29 -8 -38 -27 -13 -27 c 8 0 24 -18 34 -39 c 26 -49 87 -103 173 -149 c 50 -28 68 -42 68 -58 c 0 -19 -7 -22 -72 -27 c -84 -6 -163 -30 -198 -58 c -24 -19 -23 -19 17 0 c 42 21 137 29 147 13 c 2 -4 -22 -18 -54 -30 c -68 -27 -147 -92 -166 -139 c -21 -49 -18 -49 41 5 c 30 27 75 60 100 72 c 46 22 117 32 131 18 c 8 -9 -35 -47 -56 -49 c -24 -2 41 -17 83 -18 l 37 -1 l 0 -50 c 0 -44 -3 -50 -25 -56 c -14 -3 -37 1 -55 9 c -26 14 -30 14 -30 1 c 0 -9 5 -24 10 -34 c 9 -17 5 -21 -31 -30 c -97 -26 -199 -89 -199 -123 c 0 -6 12 1 28 14 c 62 57 140 87 182 70 c 25 -10 25 -10 -6 -10 c -91 -2 -174 -61 -223 -159 c -39 -77 -49 -121 -12 -51 c 33 61 95 124 147 145 c 36 15 147 18 179 4 c 16 -7 12 -9 -23 -15 c -23 -4 -45 -11 -47 -15 c -3 -4 15 -15 40 -24 c 33 -13 45 -23 49 -44 c 3 -15 15 -80 26 -145 l 21 -118 l -27 -67 c -54 -133 -43 -277 27 -357 c 16 -18 39 -55 52 -81 c 21 -46 22 -62 21 -249 c 0 -181 -4 -222 -37 -430 c -20 -127 -37 -244 -37 -261 c 0 -52 -37 -165 -171 -525 c -71 -194 -139 -388 -150 -433 c -14 -59 -22 -145 -29 -321 c -15 -360 -30 -445 -97 -579 c -61 -121 -112 -194 -183 -259 c -74 -68 -97 -105 -135 -224 c -30 -90 -88 -318 -106 -413 c -13 -74 -60 -176 -112 -243 c -39 -51 -60 -108 -77 -207 c -7 -36 -29 -137 -51 -225 c -41 -166 -45 -237 -14 -249 c 8 -3 15 -12 15 -21 c 0 -20 69 -95 88 -95 c 8 0 25 -11 38 -25 c 31 -34 90 -35 103 -2 c 15 36 69 420 81 571 c 16 205 63 326 185 471 c 55 66 333 428 498 649 c 53 70 112 188 148 299 c 50 148 94 248 220 497 c 189 374 191 377 253 404 c 67 30 142 46 179 39 c 44 -9 73 -59 222 -393 c 177 -396 283 -577 439 -750 c 47 -52 86 -98 86 -102 c 0 -13 83 -56 274 -142 c 753 -341 968 -536 997 -906 c 5 -63 12 -128 15 -145 c 3 -16 10 -54 15 -83 c 8 -42 14 -52 30 -52 c 19 0 108 86 109 104 c 0 4 11 21 25 38 c 49 58 49 88 4 274 c -22 93 -44 202 -49 243 c -10 90 -28 116 -106 156 c -66 34 -160 135 -267 290 c -34 49 -86 115 -115 146 c -112 120 -335 253 -470 280 c -54 11 -66 18 -79 43 c -29 57 -91 233 -167 481 c -43 138 -96 308 -118 379 c -22 71 -87 240 -145 374 c -57 135 -134 324 -170 421 c -80 215 -82 237 -83 677 c 0 318 0 322 30 470 c 35 172 47 211 107 348 c 50 116 56 150 140 811 c 10 82 16 250 19 535 c 5 411 5 416 34 560 c 36 175 85 483 102 639 c 10 95 16 115 33 126 c 11 7 79 35 150 61 c 192 70 217 99 80 92 c -47 -2 -85 -3 -85 -1 c 0 1 16 23 35 49 c 19 25 35 52 35 60 c 0 28 -31 27 -75 -4 l -43 -30 l 20 33 c 34 58 0 74 -59 29 c -19 -14 -37 -23 -41 -19 c -4 3 -9 45 -12 93 c -3 48 -9 87 -15 87 c -5 0 -26 -31 -46 -70 c -31 -62 -39 -70 -67 -73 c -30 -3 -33 0 -68 70 c -54 108 -86 137 -114 103 z m -1411 -1901 c 55 -16 88 -47 97 -92 l 7 -33 l -54 21 c -75 30 -142 67 -181 102 l -33 29 l 59 -6 c 32 -4 79 -13 105 -21 z" stroke-linecap="round"/>
</g>
		<g transform="matrix(0.1333 0 0 -0.1333 -517.9311 -90.6472)">
<path style="stroke: none; stroke-width: 1; stroke-dasharray: none; stroke-linecap: butt; stroke-dashoffset: 0; stroke-linejoin: miter; stroke-miterlimit: 4; is-custom-font: none; font-file-url: none; fill: rgb(0,0,0); fill-rule: nonzero; opacity: 1;" transform=" translate(-2516.1279, -4944.0136)" d="M 4645 8300 c -11 -5 -34 -9 -50 -9 c -41 -1 -98 -31 -129 -68 c -36 -43 -42 -98 -21 -187 l 18 -75 l -65 -118 c -36 -65 -116 -208 -178 -318 c -63 -110 -147 -267 -187 -350 c -74 -151 -98 -193 -108 -183 c -3 2 -14 40 -26 83 c -20 78 -60 168 -79 180 c -6 4 -10 -7 -10 -27 c 0 -18 -4 -40 -10 -48 c -13 -20 -33 35 -27 74 l 4 30 l -22 -29 l -23 -28 l -11 54 c -7 30 -18 65 -26 79 c -16 28 -19 23 -6 -12 c 14 -38 22 -98 14 -98 c -16 0 -54 86 -47 105 c 6 14 4 17 -7 13 c -8 -3 -26 0 -40 8 c -32 18 -47 17 -51 -2 c -2 -14 -9 -12 -37 12 l -34 28 l 7 -37 c 4 -23 3 -37 -3 -37 c -14 0 -34 38 -40 79 l -6 34 l -29 -53 l -29 -54 l -14 47 c -7 26 -18 47 -22 47 c -5 0 -17 -20 -28 -45 c -18 -44 -43 -61 -43 -29 c 0 15 -2 15 -22 1 c -22 -14 -25 -12 -70 34 c -53 56 -76 64 -53 19 c 26 -50 13 -99 -14 -52 c -6 10 -11 12 -11 4 c 0 -7 -4 -10 -10 -7 c -6 4 -10 -5 -10 -20 c 0 -15 -4 -24 -10 -20 c -5 3 -10 27 -10 53 l 0 47 l -20 -33 c -11 -18 -20 -39 -20 -47 c 0 -18 -12 -19 -29 -2 c -11 10 -13 10 -7 0 c 4 -8 1 -13 -8 -13 c -12 0 -6 -13 19 -46 c 36 -47 51 -109 19 -84 c -8 8 -27 34 -42 59 l -26 45 l -12 -29 l -11 -28 l -13 22 c -18 35 -22 19 -5 -22 c 21 -52 20 -107 -2 -107 c -21 0 -120 24 -147 35 c -16 7 -17 5 -11 -25 c 7 -32 7 -32 -29 -28 c -24 3 -37 -1 -41 -10 c -3 -9 -13 -11 -27 -7 c -64 18 -61 19 -56 -9 c 7 -33 1 -33 -34 1 l -28 27 l 0 -44 l 0 -44 l -30 34 c -34 41 -35 39 -14 -24 c 9 -26 14 -49 11 -52 c -10 -11 -61 10 -103 42 c -47 36 -52 33 -30 -21 l 15 -35 l -47 0 l -46 0 l 59 -60 c 32 -33 56 -62 54 -65 c -3 -3 -27 1 -53 9 c -41 12 -45 12 -35 0 c 18 -22 168 -94 196 -94 c 13 0 22 -4 19 -8 c -3 -5 -42 -12 -86 -15 c -120 -9 -132 -23 -27 -32 c 76 -6 85 -9 70 -21 c -16 -12 -14 -13 23 -14 c 47 0 104 -17 104 -31 c 0 -18 -68 -39 -127 -40 l -58 -1 l 68 -22 l 67 -21 l -58 -23 c -62 -24 -157 -80 -150 -88 c 3 -2 29 7 59 20 c 62 27 183 66 207 66 c 8 0 -3 -13 -24 -29 c -45 -32 -88 -80 -110 -123 c -24 -46 -12 -42 26 9 c 40 54 94 98 130 108 c 22 6 20 2 -15 -32 c -22 -21 -51 -46 -65 -55 l -25 -17 l 35 10 c 54 14 54 13 7 -48 c -24 -32 -59 -83 -78 -113 c -18 -30 -48 -73 -66 -94 c -22 -27 -33 -50 -33 -70 c 1 -29 3 -27 30 25 c 32 63 90 119 122 119 c 24 0 23 -1 -47 -79 l -30 -33 l 33 16 c 39 20 40 16 3 -37 c -29 -43 -31 -67 -5 -67 c 9 0 39 22 67 48 c 89 82 89 82 71 27 c -9 -25 -14 -48 -12 -51 c 3 -2 22 23 42 56 c 37 59 88 105 72 64 c -18 -47 -37 -135 -30 -145 c 4 -7 21 13 40 47 c 34 60 43 62 23 5 c -6 -18 -9 -34 -6 -37 c 2 -3 26 22 53 56 c 27 33 52 60 55 60 c 9 0 33 -83 30 -105 c -5 -35 -31 -75 -55 -87 c -18 -8 -46 -5 -117 12 c -52 11 -155 25 -229 30 c -80 5 -181 19 -248 34 c -62 14 -197 37 -300 52 c -187 26 -200 30 -312 92 c -64 35 -133 55 -280 77 c -58 9 -238 50 -401 90 c -163 41 -336 79 -385 85 c -49 7 -128 20 -176 31 c -94 20 -154 24 -160 10 c -2 -5 -43 -38 -93 -73 c -50 -36 -91 -71 -93 -79 c -6 -30 59 -130 102 -156 c 22 -14 62 -45 87 -69 c 26 -23 64 -47 85 -53 c 42 -12 94 -15 94 -5 c 0 16 -25 47 -51 63 l -30 19 l 70 51 l 70 51 l 53 -25 c 44 -20 62 -23 110 -18 c 56 6 62 4 166 -50 c 59 -30 211 -101 337 -157 c 239 -107 364 -146 535 -170 c 71 -10 115 -25 270 -95 c 244 -110 344 -150 465 -185 c 55 -16 159 -51 230 -78 c 121 -46 133 -53 166 -96 c 47 -61 106 -181 114 -231 c 3 -22 8 -50 11 -63 c 2 -13 29 -49 59 -82 c 29 -32 61 -73 71 -92 c 21 -42 71 -115 101 -149 c 13 -14 39 -58 58 -97 c 19 -40 39 -72 44 -72 c 11 0 77 -135 88 -178 c 3 -14 17 -45 31 -70 c 18 -31 25 -58 23 -83 c -1 -20 3 -56 9 -79 c 10 -39 9 -45 -15 -83 c -15 -22 -30 -58 -33 -79 c -3 -23 -13 -44 -24 -52 c -11 -8 -18 -22 -17 -33 c 1 -10 -7 -38 -18 -63 c -84 -180 -98 -230 -98 -355 c 0 -185 33 -262 184 -428 c 33 -37 61 -70 61 -73 c 0 -4 -41 31 -90 77 c -92 85 -204 169 -226 169 c -6 0 -42 20 -78 45 c -37 25 -74 45 -83 45 c -8 0 -28 -9 -44 -21 c -27 -19 -32 -20 -53 -6 c -22 15 -23 13 -56 -41 l -33 -56 l 43 -35 c 24 -20 58 -48 75 -63 l 30 -27 l -75 -35 c -43 -20 -111 -41 -158 -49 c -70 -12 -89 -20 -137 -57 c -149 -115 -300 -343 -262 -394 c 7 -8 25 -22 42 -30 c 28 -15 29 -18 30 -81 c 0 -62 2 -67 31 -85 c 29 -19 31 -19 64 -1 c 19 10 66 56 105 102 c 78 92 93 102 175 118 c 183 36 179 36 209 18 c 16 -9 42 -17 58 -17 c 19 0 37 -10 55 -30 c 22 -25 34 -30 71 -30 c 29 0 47 -5 50 -14 c 3 -8 19 -17 36 -21 c 17 -4 33 -11 36 -16 c 4 -5 17 -9 30 -9 c 12 0 25 -6 28 -14 c 7 -17 97 -78 152 -103 c 22 -10 54 -28 72 -40 c 17 -13 35 -23 40 -23 c 4 -1 17 -15 28 -33 c 11 -18 30 -33 42 -35 c 12 -2 56 -39 97 -83 c 42 -43 80 -79 84 -79 c 14 0 112 -105 112 -120 c 0 -26 63 -113 99 -137 c 25 -17 48 -23 88 -23 c 46 0 62 -6 111 -39 c 188 -127 359 -169 465 -114 c 47 23 140 106 172 153 c 62 90 61 171 -4 430 c -68 268 -104 362 -243 635 c -73 143 -146 281 -162 305 c -27 41 -72 122 -104 188 c -7 15 -17 34 -22 42 c -36 58 -53 110 -53 155 c 3 141 10 222 23 242 c 12 19 12 24 -2 40 c -15 17 -17 74 -6 153 c 7 44 -17 159 -48 230 c -19 44 -38 109 -43 147 c -27 207 -156 725 -210 849 c -20 45 -20 49 -5 108 c 38 146 -1 264 -136 411 c -45 49 -98 109 -117 132 l -35 42 l 2 182 c 1 165 3 185 21 210 c 17 24 23 27 45 19 c 38 -15 42 -12 11 8 c -15 10 -24 22 -20 25 c 10 10 113 8 151 -3 c 28 -7 32 -7 23 4 c -13 15 4 26 42 27 l 22 0 l -22 9 c -13 5 -57 11 -98 12 c -41 2 -75 5 -75 8 c 0 3 8 15 18 26 c 13 16 36 24 94 33 c 87 12 154 40 189 77 c 22 23 18 22 -53 -11 c -90 -41 -112 -45 -48 -9 c 48 27 90 62 90 75 c 0 4 -33 -8 -74 -27 c -96 -44 -103 -43 -29 5 c 56 36 103 83 103 103 c 0 5 -14 -7 -32 -27 c -32 -37 -98 -86 -132 -98 c -10 -4 16 25 58 64 c 42 39 76 76 76 81 c 0 6 -6 5 -15 -2 c -53 -44 53 119 126 195 c 122 126 156 204 258 594 l 51 194 l 89 146 c 49 80 111 179 140 220 c 28 41 54 89 57 108 c 8 42 -10 86 -42 103 c -16 9 -24 22 -24 41 c 0 15 -3 30 -8 33 c -17 10 -78 15 -97 6 z" stroke-linecap="round"/>
</g>
		<g transform="matrix(0.1333 0 0 -0.1333 535.7804 42.2088)">
<path style="stroke: none; stroke-width: 1; stroke-dasharray: none; stroke-linecap: butt; stroke-dashoffset: 0; stroke-linejoin: miter; stroke-miterlimit: 4; is-custom-font: none; font-file-url: none; fill: rgb(0,0,0); fill-rule: nonzero; opacity: 1;" transform=" translate(-10418.9086, -3947.5)" d="M 12314 7656 c -10 -16 -34 -45 -51 -66 c -29 -33 -33 -44 -33 -96 c 0 -91 21 -154 74 -218 c 25 -31 46 -63 46 -71 c 0 -8 -9 -63 -21 -122 c -64 -336 -199 -741 -258 -773 c -53 -28 -410 -65 -721 -76 c -151 -5 -156 -6 -210 -37 c -83 -47 -155 -119 -180 -182 c -26 -65 -44 -74 -79 -41 c -14 14 -48 30 -76 37 c -32 7 -63 24 -86 46 c -35 33 -36 36 -27 81 c 10 57 2 122 -22 179 c -27 61 -194 242 -246 264 c -58 26 -145 33 -233 20 c -199 -31 -326 -174 -365 -413 l -7 -36 l -42 23 c -23 13 -69 51 -102 85 c -44 44 -67 60 -87 60 c -19 0 -57 24 -125 78 c -148 118 -242 185 -308 222 c -85 47 -173 120 -298 245 l -108 109 l 8 100 c 4 56 6 112 5 126 c -1 14 -4 84 -6 155 l -4 130 l -26 3 c -31 4 -41 -16 -59 -127 c -20 -116 -35 -111 -126 44 c -61 104 -77 125 -95 123 c -18 -3 -21 -10 -20 -45 c 1 -39 0 -41 -13 -23 c -30 43 -73 47 -94 9 c -11 -22 15 -82 51 -114 c 23 -20 55 -83 47 -91 c -7 -7 -72 79 -86 114 c -19 45 -47 59 -72 36 c -10 -9 -19 -25 -19 -35 c 0 -9 27 -54 60 -98 c 33 -45 55 -81 49 -81 c -15 0 -79 70 -79 86 c 0 7 -13 17 -30 22 c -26 9 -31 8 -41 -9 c -8 -16 -3 -32 26 -84 c 28 -50 48 -73 90 -100 c 30 -19 55 -39 55 -43 c 0 -5 25 -29 55 -53 c 62 -49 270 -275 409 -444 c 168 -203 403 -422 596 -554 c 72 -50 75 -54 102 -128 c 16 -42 36 -105 45 -140 c 15 -63 17 -65 109 -139 c 157 -126 216 -202 239 -307 c 6 -28 40 -70 63 -78 c 6 -2 30 -67 52 -144 c 62 -213 137 -428 185 -534 l 44 -96 l 12 -200 l 12 -200 l -34 -48 c -43 -61 -48 -131 -12 -169 c 20 -21 21 -27 11 -61 c -9 -31 -46 -68 -197 -200 c -488 -426 -718 -654 -793 -787 c -71 -126 -133 -392 -120 -517 c 4 -44 -6 -35 219 -208 c 11 -8 10 -106 -2 -538 l -15 -529 l -72 -136 c -166 -317 -242 -397 -428 -446 c -55 -14 -69 -23 -93 -56 c -24 -34 -26 -42 -15 -64 c 6 -15 33 -39 59 -55 l 47 -29 l 118 13 c 151 18 262 39 372 71 c 48 14 176 38 285 53 c 108 15 200 31 205 35 c 4 4 6 50 5 101 c -2 95 -9 118 -57 200 c -14 22 -34 85 -46 140 c -11 54 -26 105 -32 112 c -27 33 20 463 67 611 c 31 97 50 194 70 342 c 10 77 36 186 78 329 l 64 213 l 84 60 c 108 77 175 134 269 226 c 60 60 113 97 269 189 c 106 62 198 115 203 116 c 6 1 16 -16 22 -38 c 7 -22 32 -78 55 -123 c 85 -169 152 -351 171 -464 c 7 -47 4 -69 -32 -193 c -21 -77 -47 -162 -57 -190 c -10 -28 -16 -65 -14 -86 c 4 -33 -1 -43 -74 -125 c -142 -161 -184 -237 -185 -335 c -1 -94 46 -142 141 -141 c 86 1 192 64 333 200 c 96 93 154 181 207 317 c 30 77 31 86 31 228 l 0 147 l -35 70 c -19 37 -39 71 -45 75 c -5 3 -10 41 -10 83 c 0 102 28 475 40 532 c 5 25 9 64 10 86 c 0 25 10 60 26 88 c 14 25 24 52 21 58 c -2 8 19 24 52 39 c 111 52 229 172 323 331 c 41 70 42 74 42 159 c -1 75 -4 93 -28 133 c -26 45 -26 47 -16 135 l 11 90 l -38 78 c -22 47 -57 97 -86 127 c -47 47 -49 50 -42 92 c 3 24 18 65 32 91 c 17 33 27 69 31 115 c 4 60 2 73 -26 125 c -42 82 -82 214 -88 297 c -4 48 3 135 20 272 c 14 110 26 206 26 211 c 0 6 69 55 153 109 c 83 55 189 132 235 172 c 69 62 82 78 83 105 c 0 18 4 41 8 51 c 4 11 68 54 142 96 c 129 73 135 79 161 131 c 63 127 133 463 148 714 c 14 230 27 308 62 390 c 35 82 40 146 13 175 c -10 11 -42 32 -71 46 c -29 14 -55 32 -58 40 c -3 8 -11 14 -19 14 c -7 0 -23 14 -35 30 c -13 17 -28 30 -35 30 c -7 0 -26 16 -43 37 l -31 36 l -19 -27 z" stroke-linecap="round"/>
</g>
		<g transform="matrix(0.1333 0 0 -0.1333 -495.3001 -386.0242)">
<path style="stroke: none; stroke-width: 1; stroke-dasharray: none; stroke-linecap: butt; stroke-dashoffset: 0; stroke-linejoin: miter; stroke-miterlimit: 4; is-custom-font: none; font-file-url: none; fill: rgb(0,0,0); fill-rule: nonzero; opacity: 1;" transform=" translate(-2685.25, -7160.1777)" d="M 2682 7160 c 0 -14 2 -19 5 -12 c 2 6 2 18 0 25 c -3 6 -5 1 -5 -13 z" stroke-linecap="round"/>
</g>
</g>
</g>
</svg>