<svg xmlns="http://www.w3.org/2000/svg" xmlns:xlink="http://www.w3.org/1999/xlink" version="1.1" width="1080" height="1080" viewBox="0 0 1080 1080" xml:space="preserve">
<desc>Created with Fabric.js 3.5.0</desc>
<defs>
</defs>
<rect x="0" y="0" width="100%" height="100%" fill="#ffffff"/>
<g transform="matrix(0.4365 0 0 0.6402 578.0253 487.0829)" id="837063">
<g style="" vector-effect="non-scaling-stroke">
		<g transform="matrix(0.1333 0 0 -0.1333 663.8079 -4.6699)">
<path style="stroke: none; stroke-width: 1; stroke-dasharray: none; stroke-linecap: butt; stroke-dashoffset: 0; stroke-linejoin: miter; stroke-miterlimit: 4; is-custom-font: none; font-file-url: none; fill: rgb(0,0,0); fill-rule: nonzero; opacity: 1;" transform=" translate(-11378.8786, -2594.5001)" d="M 10453 4616 c 8 -92 -7 -102 -25 -16 c -7 36 -17 60 -25 60 c -9 0 -13 -17 -13 -60 c 0 -34 -4 -60 -10 -60 c -6 0 -8 -10 -5 -23 c 4 -16 -3 -34 -24 -61 c -17 -21 -31 -51 -31 -65 c 0 -14 20 -155 44 -312 c 41 -268 46 -292 84 -375 c 22 -49 61 -139 86 -200 c 26 -61 58 -126 72 -145 c 14 -19 39 -58 56 -88 l 31 -53 l -6 -207 c -8 -300 -36 -661 -54 -689 c -8 -13 -23 -49 -34 -79 c -10 -30 -32 -67 -49 -83 c -16 -15 -30 -38 -30 -50 c 0 -13 -30 -58 -72 -107 c -80 -96 -131 -181 -260 -430 c -55 -108 -88 -183 -88 -203 c 0 -106 120 -169 298 -155 c 45 4 82 4 82 2 c 0 -3 -10 -47 -21 -99 c -23 -100 -44 -148 -83 -195 c -80 -95 -137 -255 -121 -339 c 9 -50 48 -84 95 -84 c 36 0 54 10 140 80 c 14 11 50 28 80 39 c 48 16 59 25 82 67 c 21 37 28 63 28 105 c 0 76 -14 93 -73 87 c -28 -3 -47 -1 -47 4 c 0 6 19 32 43 58 c 23 26 71 100 105 164 l 64 116 l 23 -18 c 13 -9 27 -30 31 -46 c 3 -16 21 -42 40 -58 c 28 -25 34 -37 34 -69 c 0 -32 5 -42 24 -50 c 34 -16 72 -4 93 28 c 13 20 18 49 19 109 c 1 74 4 86 28 114 c 45 54 32 99 -37 128 c -40 17 -61 15 -90 -8 c -21 -16 -33 -19 -57 -13 c -34 9 -34 11 -12 63 c 8 19 25 85 36 145 c 22 109 23 110 52 113 c 61 5 75 13 86 43 c 7 20 31 43 77 73 c 88 57 137 108 173 180 c 37 72 49 167 26 194 c -13 14 -14 44 -8 197 c 7 181 24 296 62 435 c 12 41 28 101 36 132 c 11 45 20 59 41 67 c 14 6 114 18 221 26 c 328 25 386 37 555 110 c 55 24 131 51 168 61 c 57 14 75 24 113 63 c 24 25 47 56 50 69 c 6 22 24 31 24 12 c 0 -5 5 -10 10 -10 c 6 0 10 9 10 20 c 0 22 15 27 26 9 c 4 -7 13 2 22 20 c 14 30 14 33 -7 54 c -11 13 -21 29 -21 35 c 0 15 0 15 -53 -7 c -25 -11 -54 -33 -67 -53 c -37 -53 -73 -89 -100 -100 c -14 -5 -81 -16 -150 -24 c -69 -8 -188 -26 -265 -41 c -167 -32 -324 -36 -421 -10 c -82 22 -125 21 -185 -4 l -50 -22 l -22 20 c -12 11 -35 25 -51 30 c -36 11 -44 29 -18 35 c 26 7 79 97 64 107 c -8 5 -6 25 8 70 c 24 76 24 92 5 159 c -19 63 -66 113 -130 137 c -39 15 -52 16 -86 6 c -22 -7 -50 -23 -62 -37 c -32 -37 -87 -143 -87 -169 c 0 -12 -9 -33 -21 -46 c -21 -25 -22 -34 -3 -171 c 5 -40 3 -48 -10 -48 c -9 0 -18 11 -21 25 c -3 14 -8 37 -11 52 c -3 15 -40 62 -84 108 c -66 67 -87 97 -125 179 c -29 62 -51 128 -60 176 c -7 43 -35 129 -64 196 c -73 175 -101 265 -101 327 c 0 49 4 61 38 104 c 67 84 98 136 84 141 c -6 2 -12 19 -12 38 c 0 52 -26 44 -34 -11 c -4 -25 -11 -45 -15 -45 c -5 0 -13 26 -17 57 c -7 45 -13 59 -28 61 c -18 4 -19 -1 -13 -72 z" stroke-linecap="round"/>
</g>
		<g transform="matrix(0.1333 0 0 -0.1333 -229.3002 -4.7341)">
<path style="stroke: none; stroke-width: 1; stroke-dasharray: none; stroke-linecap: butt; stroke-dashoffset: 0; stroke-linejoin: miter; stroke-miterlimit: 4; is-custom-font: none; font-file-url: none; fill: rgb(0,0,0); fill-rule: nonzero; opacity: 1;" transform=" translate(-4680.5307, -2595)" d="M 3787 4613 c -4 -3 -7 -31 -7 -61 c 0 -49 -13 -82 -115 -306 c -71 -153 -115 -259 -113 -274 c 4 -30 5 -31 141 -82 l 107 -42 l 0 -48 l 0 -48 l 72 -42 c 83 -50 153 -111 175 -153 c 28 -54 28 -195 0 -372 c -14 -88 -29 -192 -32 -231 l -7 -72 l 100 -7 c 112 -8 133 -15 113 -39 c -19 -22 -6 -60 25 -76 c 24 -13 25 -18 19 -60 c -3 -25 -15 -74 -25 -110 c -25 -85 -46 -245 -60 -455 c -6 -93 -18 -198 -27 -233 c -21 -85 -14 -157 23 -229 c 17 -32 64 -124 106 -205 c 93 -180 133 -290 154 -416 c 17 -108 42 -188 73 -231 c 32 -45 28 -105 -9 -148 c -47 -53 -37 -103 21 -103 c 28 0 130 69 248 168 c 64 54 128 92 174 106 c 21 7 23 49 2 66 c -10 8 -15 31 -15 66 c 0 43 -3 54 -19 59 c -12 3 -86 107 -175 245 l -156 240 l 2 59 c 1 33 -4 66 -10 73 c -6 8 -9 23 -6 35 c 3 11 -8 73 -25 138 l -31 118 l 25 63 c 17 42 25 82 25 121 c 0 58 23 157 38 167 c 10 6 204 -133 257 -184 c 52 -51 86 -63 135 -50 c 84 22 225 145 488 422 l 111 118 l 49 0 c 27 0 71 3 97 7 c 42 5 49 10 61 39 c 20 49 17 87 -8 112 c -44 40 -112 55 -361 78 c -156 14 -171 14 -194 -1 c -22 -15 -24 -22 -19 -54 c 5 -34 2 -41 -29 -68 c -29 -26 -35 -38 -35 -73 c 0 -50 -17 -85 -62 -126 c -62 -57 -65 -58 -92 -41 c -28 19 -66 123 -64 177 c 1 20 -8 56 -20 81 c -12 25 -22 61 -22 81 c 0 37 -19 67 -102 162 c -39 45 -128 217 -128 249 c 0 10 25 44 55 76 c 30 32 61 75 68 96 c 8 22 19 41 26 43 c 7 2 35 -19 62 -48 c 33 -35 55 -50 68 -48 c 14 2 44 -20 98 -74 l 78 -76 l 235 8 c 129 5 253 14 274 20 c 43 13 96 59 96 84 c 0 9 11 18 25 22 c 33 8 36 33 9 91 c -11 25 -23 34 -50 39 c -45 8 -80 -22 -97 -83 c -7 -28 -17 -43 -27 -42 c -8 0 -102 6 -207 13 c -221 14 -212 11 -270 115 c -60 109 -107 170 -216 284 l -104 108 l 32 25 c 26 19 50 26 105 31 c 102 9 112 19 118 124 c 6 114 -8 159 -61 202 c -54 45 -95 65 -146 73 c -79 13 -199 -72 -238 -168 c -9 -23 -43 -62 -84 -99 l -69 -61 l -72 23 c -66 22 -92 24 -273 25 c -156 0 -216 4 -272 18 c -40 10 -73 23 -73 30 c 0 6 28 87 62 179 l 62 168 l 53 15 c 29 8 55 19 58 24 c 7 11 -15 70 -26 70 c -6 0 -32 20 -58 45 c -35 33 -56 45 -78 45 c -16 0 -33 -3 -36 -7 z" stroke-linecap="round"/>
</g>
		<g transform="matrix(0.1333 0 0 -0.1333 -666.7156 -5.2282)">
<path style="stroke: none; stroke-width: 1; stroke-dasharray: none; stroke-linecap: butt; stroke-dashoffset: 0; stroke-linejoin: miter; stroke-miterlimit: 4; is-custom-font: none; font-file-url: none; fill: rgb(0,0,0); fill-rule: nonzero; opacity: 1;" transform=" translate(-1399.9433, -2598.7222)" d="M 2532 4537 c -6 -6 -16 -34 -24 -61 c -10 -34 -17 -44 -21 -33 c -13 34 -27 17 -21 -23 c 5 -27 2 -53 -9 -78 c -8 -20 -20 -64 -27 -96 c -15 -71 -82 -230 -178 -421 c -50 -101 -89 -161 -136 -217 c -85 -98 -189 -178 -233 -178 c -62 0 -50 38 22 72 l 40 19 l -35 -4 c -19 -3 -42 -7 -50 -9 c -12 -2 -15 9 -13 62 c 1 57 1 60 -6 23 c -9 -52 -17 -61 -39 -46 c -16 10 -17 22 -9 83 c 1 8 -2 15 -6 15 c -5 0 -13 8 -18 18 c -6 9 -17 17 -26 17 c -11 0 -14 6 -10 21 c 5 19 2 20 -27 15 c -26 -5 -36 -2 -53 16 c -11 13 -23 32 -27 43 c -7 19 -8 20 -21 1 c -14 -18 -15 -18 -26 7 c -13 29 -29 27 -29 -4 c 0 -16 -3 -18 -19 -10 c -18 10 -18 10 0 -26 c 21 -41 25 -83 9 -83 c -6 0 -13 14 -16 30 c -4 17 -11 30 -16 30 c -6 0 -8 -13 -4 -30 c 5 -27 1 -35 -30 -63 c -20 -17 -45 -50 -55 -74 c -10 -23 -30 -49 -44 -59 c -19 -12 -23 -19 -14 -25 c 8 -5 -1 -10 -24 -14 c -24 -5 -42 -3 -52 5 c -12 10 -15 10 -15 -3 c 0 -19 25 -29 55 -21 c 23 6 23 4 12 -20 c -13 -28 -23 -28 -113 6 c -71 26 -154 82 -249 168 c -44 40 -132 116 -195 168 c -63 53 -164 144 -225 202 c -123 119 -259 230 -281 230 c -24 0 -16 -16 22 -45 c 19 -15 33 -29 30 -32 c -3 -3 -22 8 -43 24 c -40 32 -76 53 -89 53 c -5 0 14 -23 41 -52 l 50 -51 l -47 26 c -26 15 -54 27 -64 27 c -15 0 -14 -4 7 -26 c 13 -14 36 -33 52 -42 c 36 -22 35 -37 -3 -17 c -16 8 -39 15 -52 15 c -23 -1 -23 -1 -3 -16 c 11 -8 48 -33 83 -57 c 166 -112 226 -164 350 -299 c 230 -252 379 -385 531 -473 c 103 -60 126 -86 168 -196 c 31 -82 36 -110 43 -224 c 6 -102 5 -133 -5 -145 c -20 -23 -45 -89 -45 -120 c 0 -15 -11 -52 -25 -82 c -14 -30 -29 -75 -34 -99 c -6 -24 -15 -64 -21 -89 c -16 -59 -7 -301 14 -398 c 24 -108 65 -250 92 -311 c 26 -59 31 -101 12 -101 c -7 0 -67 12 -133 25 c -66 14 -140 25 -164 25 c -25 0 -73 12 -109 26 c -35 14 -89 31 -119 37 c -50 11 -56 10 -69 -8 c -12 -16 -12 -21 1 -35 c 14 -15 12 -23 -19 -74 c -19 -31 -39 -78 -44 -104 c -52 -243 -55 -258 -48 -324 c 9 -77 39 -143 79 -172 l 29 -21 l 32 37 c 18 21 38 57 45 80 c 22 72 111 217 150 244 c 48 32 68 31 159 -15 c 152 -76 244 -87 402 -46 c 76 20 104 42 136 110 c 20 43 24 65 23 150 c 0 55 -4 125 -9 155 c -9 61 5 93 15 36 c 4 -20 8 -168 9 -330 c 1 -214 4 -297 13 -308 c 8 -9 12 -47 12 -106 c -1 -102 15 -151 63 -186 c 37 -27 72 -14 115 42 c 48 63 57 109 46 225 l -10 98 l 44 43 c 39 39 43 48 43 92 c 0 27 7 57 15 68 c 12 16 12 23 -6 59 c -16 30 -19 45 -11 62 c 5 12 6 28 2 36 c -6 11 -20 716 -19 987 c 0 24 -6 50 -12 59 c -15 18 -13 417 2 445 c 5 10 14 64 19 121 c 16 173 37 218 218 454 c 110 144 168 261 251 505 c 38 112 79 227 90 256 c 12 29 21 65 21 81 c 0 16 9 58 20 93 c 25 81 26 95 3 77 c -15 -12 -16 -12 -10 4 c 15 41 19 67 9 67 c -6 0 -13 -6 -15 -12 c -3 -7 -6 -2 -7 12 l -1 25 l -19 -24 c -15 -17 -20 -19 -20 -8 c 0 22 -16 29 -28 14 z" stroke-linecap="round"/>
</g>
		<g transform="matrix(0.1333 0 0 -0.1333 158.626 -4.6146)">
<path style="stroke: none; stroke-width: 1; stroke-dasharray: none; stroke-linecap: butt; stroke-dashoffset: 0; stroke-linejoin: miter; stroke-miterlimit: 4; is-custom-font: none; font-file-url: none; fill: rgb(0,0,0); fill-rule: nonzero; opacity: 1;" transform=" translate(-7590, -2594.1914)" d="M 8580 4248 c -33 -19 -44 -59 -31 -107 c 12 -38 2 -60 -101 -239 c -33 -57 -77 -140 -99 -185 c -21 -44 -43 -85 -48 -90 c -5 -5 -16 14 -26 45 c -24 71 -37 88 -46 57 c -7 -23 -7 -22 -8 5 c -1 24 -3 27 -16 16 c -13 -10 -15 -9 -16 11 c 0 22 -1 23 -9 4 c -7 -18 -9 -16 -15 13 c -4 18 -10 30 -13 28 c -2 -3 -13 -1 -23 5 c -14 7 -19 6 -19 -3 c 0 -9 -3 -9 -12 0 c -17 17 -28 15 -21 -5 c 4 -11 3 -14 -5 -9 c -7 4 -12 16 -12 27 c 0 26 -17 24 -26 -3 l -6 -21 l -13 23 c -12 23 -13 23 -23 4 c -14 -26 -46 -27 -68 -3 c -23 26 -38 24 -23 -3 c 9 -17 9 -20 -4 -15 c -8 3 -20 0 -26 -6 c -8 -8 -11 -7 -11 6 c 0 15 -3 14 -20 -3 c -19 -19 -19 -22 -5 -43 c 24 -35 17 -45 -10 -12 c -14 17 -25 24 -25 17 c 0 -7 -4 -10 -10 -7 c -6 4 -7 -2 -1 -18 c 14 -37 0 -50 -43 -39 c -29 8 -36 8 -36 -4 c 0 -13 -23 -19 -62 -16 c -10 1 -18 -3 -18 -9 c 0 -8 -5 -7 -15 1 c -12 10 -15 9 -15 -5 c 0 -15 -2 -15 -16 -4 c -13 11 -14 9 -9 -14 c 9 -33 -3 -34 -39 -6 l -27 21 l 7 -26 c 5 -22 3 -26 -17 -26 l -24 -1 l 28 -22 c 33 -28 35 -41 5 -34 c -22 6 -22 6 2 -13 c 14 -11 39 -22 55 -26 c 30 -7 30 -7 -15 -20 c -40 -11 -42 -12 -15 -13 c 17 -1 35 -5 40 -10 c 6 -5 20 -11 33 -13 c 35 -5 27 -23 -13 -26 c -38 -3 -39 -22 -2 -22 c 16 -1 9 -8 -25 -26 c -55 -28 -64 -41 -15 -21 c 17 8 45 17 60 21 l 29 7 l -36 -37 c -20 -21 -34 -39 -31 -42 c 2 -3 18 9 34 27 c 16 17 35 31 43 31 c 7 0 0 -11 -17 -25 c -20 -16 -23 -23 -11 -18 c 19 6 19 6 0 -23 c -61 -88 -96 -146 -90 -151 c 3 -3 9 3 12 13 c 9 24 54 74 68 74 c 5 0 -1 -11 -14 -25 c -13 -14 -18 -25 -11 -25 c 8 0 9 -5 1 -19 c -21 -41 1 -43 43 -3 c 28 25 29 26 23 5 c -10 -33 1 -28 19 7 c 19 37 39 41 25 4 c -6 -14 -10 -33 -10 -42 c 0 -13 5 -12 20 8 c 17 21 19 21 14 5 c -4 -13 3 -9 21 13 c 21 26 30 30 36 20 c 14 -22 10 -54 -8 -70 c -16 -14 -29 -14 -113 -1 c -383 57 -443 68 -492 95 c -26 14 -80 31 -120 38 c -40 7 -145 29 -233 50 c -88 21 -199 46 -247 54 l -87 16 l -56 -37 c -30 -20 -55 -42 -55 -48 c 2 -50 150 -168 177 -141 c 3 3 -2 14 -11 25 c -16 18 -16 20 14 41 c 26 19 34 20 65 10 c 19 -6 43 -9 54 -5 c 13 4 51 -10 108 -39 c 154 -77 275 -124 363 -141 c 50 -10 132 -37 199 -67 c 63 -27 173 -69 243 -93 c 71 -23 138 -51 149 -61 c 28 -25 69 -107 69 -137 c 0 -13 15 -41 33 -63 c 37 -44 84 -112 108 -155 c 9 -16 22 -36 30 -45 c 25 -30 79 -167 79 -199 c 0 -18 -10 -54 -22 -81 c -12 -27 -23 -53 -24 -59 c -1 -5 -15 -39 -29 -75 c -20 -47 -28 -83 -28 -130 c 0 -76 16 -121 70 -188 l 38 -47 l -45 40 c -65 59 -175 118 -197 107 c -10 -5 -23 -7 -30 -5 c -6 2 -20 -8 -29 -22 c -18 -27 -18 -27 21 -60 l 39 -32 l -57 -22 c -32 -11 -66 -21 -76 -21 c -44 0 -153 -111 -181 -186 c -10 -25 -8 -31 9 -45 c 13 -10 21 -29 21 -46 c 0 -29 15 -53 34 -53 c 6 0 34 25 62 56 c 48 52 58 57 116 68 c 65 12 114 4 140 -22 c 7 -7 19 -12 28 -12 c 19 0 78 -27 100 -46 c 8 -6 38 -25 67 -41 c 67 -37 240 -188 247 -216 c 9 -37 44 -67 77 -67 c 17 0 44 -9 59 -20 c 55 -39 134 -70 181 -70 c 80 0 169 85 169 161 c 0 37 -39 196 -69 287 c -18 51 -80 174 -210 414 c -40 73 -42 81 -37 142 c 2 36 7 70 11 76 c 3 5 3 16 -2 23 c -4 6 -6 35 -5 62 c 2 32 -4 73 -16 110 c -11 33 -34 129 -52 213 c -17 84 -43 192 -59 240 c -20 62 -26 101 -23 135 c 7 81 -4 108 -78 196 l -70 83 l 0 89 c 0 76 3 90 20 102 c 11 8 17 17 12 21 c -4 5 14 7 39 5 c 29 -3 51 1 58 9 c 9 9 3 12 -29 12 c -57 0 -47 22 16 36 c 53 12 99 32 91 41 c -3 2 -16 0 -29 -7 l -23 -11 l 23 20 c 12 10 22 23 22 27 c 0 4 -5 3 -12 -4 c -24 -24 -31 -11 -7 16 l 24 27 l -27 -24 c -15 -13 -25 -27 -23 -31 c 3 -4 -6 -7 -19 -7 c -23 0 -22 1 10 30 c 19 16 32 32 29 35 c -8 8 36 74 67 100 c 40 34 83 131 118 267 c 31 119 64 187 147 309 c 38 56 41 76 13 101 c -11 10 -20 24 -20 32 c 0 19 -84 13 -120 -9 z" stroke-linecap="round"/>
</g>
</g>
</g>
</svg>