<svg xmlns="http://www.w3.org/2000/svg">
    <defs></defs>
    <symbol id="user" viewBox="0 0 24 24">
        <path
            d="M12 12a3.5 3.5 0 100-7 3.5 3.5 0 000 7zm6.762 7a7.073 7.073 0 00-13.524 0h13.524zM4 21a1 1 0 01-1-1h-.008a9.08 9.08 0 01.02-.159 9.08 9.08 0 015.454-7.127 5.5 5.5 0 117.068 0A9.08 9.08 0 0121.008 20H21a1 1 0 01-1 1H4z">
        </path>
    </symbol>
    <symbol id="lt" viewBox="0 0 24 24">
        <path
            d="M8 12c0 .273.11.521.288.702l5.005 5.005a1 1 0 001.414-1.414L10.415 12l4.295-4.295a1 1 0 00-1.417-1.412l-4.98 4.98A.997.997 0 008 12z">
        </path>
    </symbol>
    <symbol id="gt" viewBox="0 0 24 24">
        <path
            d="M16 12a.997.997 0 00-.288-.702l-5.005-5.005a1 1 0 00-1.414 1.414L13.585 12 9.29 16.295a1 1 0 001.417 1.412l4.98-4.98A.997.997 0 0016 12z">
        </path>
    </symbol>
    <symbol id="cart" viewBox="0 0 24 24">
        <path
            d="M9.25 18.5a1.25 1.25 0 110 2.5 1.25 1.25 0 010-2.5zm7.5 0a1.25 1.25 0 110 2.5 1.25 1.25 0 010-2.5zM6 3c.317 0 .6.147.782.377.085.105.15.23.187.369L7.573 6H20a1 1 0 01.936.648c.073.19.089.404.032.616l-1.607 5.998a1 1 0 01-1.048.738H9.168l-.402 1.5H18a1 1 0 010 2H7.47a1 1 0 01-.864-.497.997.997 0 01-.107-.77l.873-3.258L5.236 5H4a1 1 0 110-2h2zm12.7 5H8.11l1.071 4h8.447L18.7 8z">
        </path>
    </symbol>
    <symbol id="chat" viewBox="0 0 24 24">
        <path
            d="M21 4a1 1 0 011 1v11a1 1 0 01-1 1h-2.002v2a.999.999 0 01-1.635.771L14 17H3a1 1 0 01-1-1V5a1 1 0 011-1h18zm-1 2H4v9h10.718l2.28 1.879V15H20V6zm-7.5 3a1.5 1.5 0 110 3 1.5 1.5 0 010-3zm-4 0a1.5 1.5 0 110 3 1.5 1.5 0 010-3zm8 0a1.5 1.5 0 110 3 1.5 1.5 0 010-3z">
        </path>
    </symbol>
    <symbol id="pin" viewBox="0 0 24 24">
        <path
            d="M12 2a8 8 0 018 8c0 2.81-2.428 6.713-7.284 11.698a1.006 1.006 0 01-1.432 0C6.428 16.713 4 12.811 4 10a8 8 0 018-8zm0 2a6 6 0 00-6 6c0 2.013 1.968 5.282 6 9.552 4.032-4.27 6-7.539 6-9.552a6 6 0 00-6-6zm0 4.5a1.5 1.5 0 110 3 1.5 1.5 0 010-3z">
        </path>
    </symbol>
    <symbol id="hamburger" viewBox="0 0 24 24">
        <path
            d="M20 17a1 1 0 010 2H4a1 1 0 010-2h16zm0-6a1 1 0 010 2H4a1 1 0 010-2h16zm0-6a1 1 0 010 2H4a1 1 0 110-2h16z">
        </path>
    </symbol>
    <symbol id="plug" viewBox="0 0 24 24">
        <path
            d="M16.364 3A10 10 0 0122 12a10 10 0 01-5.636 9H7.636A10 10 0 012 12a10 10 0 015.636-9h8.728zM8.123 5A7.998 7.998 0 004 12a7.998 7.998 0 004.123 7h7.754A7.998 7.998 0 0020 12a7.998 7.998 0 00-4.123-7H8.123zM8 8a1 1 0 112 0v4a1 1 0 01-2 0V8zm6 0a1 1 0 012 0v4a1 1 0 01-2 0V8zm-3 7a1 1 0 012 0v1a1 1 0 01-2 0v-1z">
        </path>
    </symbol>
    <symbol id="question" viewBox="0 0 24 24">
        <path
            d="M12 2c5.523 0 10 4.477 10 10s-4.477 10-10 10S2 17.523 2 12 6.477 2 12 2zm0 2a8 8 0 100 16 8 8 0 000-16zm0 11.5a1.25 1.25 0 110 2.5 1.25 1.25 0 010-2.5zM12 6a3.5 3.5 0 013.5 3.5c0 1.796-1.572 2.586-1.805 2.734A1.507 1.507 0 0013 13.5a1 1 0 11-2 .007c0-.96.381-1.626 1-2.257.619-.631 1.5-.934 1.5-1.75a1.5 1.5 0 00-3 0 1 1 0 01-2 0A3.5 3.5 0 0112 6z">
        </path>
    </symbol>
    <symbol id="search" viewBox="0 0 24 24">
        <path
            d="M20.707 19.294a1 1 0 01-1.414 1.414l-4.244-4.245a7.5 7.5 0 111.414-1.414l4.244 4.245zM10.5 16a5.5 5.5 0 100-11 5.5 5.5 0 000 11z">
        </path>
    </symbol>
    <symbol id="x" viewBox="0 0 24 24">
        <path
            d="M13.415 12.006l5.295-5.292a1 1 0 00-1.414-1.415L12 10.591 6.71 5.296A1 1 0 005.295 6.71l5.292 5.295-5.295 5.292a1 1 0 101.414 1.414l5.295-5.292 5.292 5.295a1 1 0 001.414-1.414l-5.292-5.294z">
        </path>
    </symbol>
    <symbol id="run" viewBox="0 0 24 24">
        <path
            d="M15.852 18.001l4.14.007c.03-.44-.014-1.024-.32-1.545-.405-.685-1.177-1.208-2.354-1.444-.018-.003-.032-.014-.049-.018h-1.802a1 1 0 010-2h.948l-.123-1h-2.247a1 1 0 010-2h2.064l-.043-.425c-1.449-.37-2.686-.922-3.896-2.757l-2.852 3.715 6.534 7.467zm6.14 0l.008.004v.996a1 1 0 01-1.043 1 1.012 1.012 0 01-.132.008l-5.43-.01a.996.996 0 01-.755-.344l-7.399-8.427a1 1 0 01-.038-1.264l4.301-5.572a.999.999 0 011.692.17c1.21 2.475 2.06 2.764 3.923 3.214l.113.026c.416.1.721.454.76.88l.423 4.613c1.388.412 2.392 1.142 2.993 2.176.51.878.614 1.805.585 2.53h-.001zM3 18h7.995l1.739 2H3a1 1 0 010-2zm7.081-.992H3a1 1 0 010-2h5.342l1.74 2h-.001zm-2.614-2.99H3a1 1 0 010-2h2.728l1.739 2z">
        </path>
    </symbol>
    <symbol id="tree" viewBox="0 0 24 24">
        <path
            d="M12.707 2.293A.997.997 0 0113 3v1a3 3 0 003 3h1a1 1 0 010 2h-1a4.978 4.978 0 01-3-1 3 3 0 003 3h2a1 1 0 110 2h-2a4.978 4.978 0 01-3-1 3 3 0 003 3h3a1 1 0 110 2h-3a4.978 4.978 0 01-3-1v5a1 1 0 01-2 0v-5c-.836.628-1.874 1-3 1H5a1 1 0 010-2h3a3 3 0 003-3c-.836.628-1.874 1-3 1H6a1 1 0 010-2h2a3 3 0 003-3c-.836.628-1.874 1-3 1H7a1 1 0 110-2h1a3 3 0 003-3V3a1 1 0 011.707-.707z">
        </path>
    </symbol>
    <symbol id="moutain" viewBox="0 0 24 24">
        <path
            d="M9.038 15.274L8.003 12.7 5.483 19H18.55L14.01 6.907l-3.034 8.312a1 1 0 01-1.938.055zM20 21H4a1 1 0 01-.884-1.467l3.92-9.802a1 1 0 011.92-.024l.998 2.482 3.072-8.415a1 1 0 011.954.025l5.912 15.748A1 1 0 0120 21z">
        </path>
    </symbol>
    <symbol id="heart" viewBox="0 0 24 24">
        <path
            d="M16 3a6 6 0 014.701 9.728c-.542.683-3.208 3.344-8 7.984a.997.997 0 01-1.428-.026c-5.051-4.985-7.764-7.71-8.138-8.173C2.575 11.818 2 10.312 2 9a6 6 0 0110-4.472A5.978 5.978 0 0116 3zm0 2a3.994 3.994 0 00-3.215 1.62.998.998 0 01-1.549.026l-.049-.063a4 4 0 00-6.43 4.76c.318.439 2.732 2.853 7.243 7.243 4.374-4.156 6.788-6.57 7.241-7.241.68-1.008.759-1.47.759-2.345a4 4 0 00-4-4z">
        </path>
    </symbol>
    <symbol id="snow" viewBox="0 0 24 24">
        <path
            d="M13.31 12.75h3.28l1.856 1.857a.75.75 0 101.06-1.06l-.795-.797h2.539a.75.75 0 100-1.5h-2.5l.76-.76a.75.75 0 10-1.062-1.06l-1.82 1.82h-3.297l1.638-2.837 2.486-.666a.75.75 0 10-.388-1.45l-1.037.279 1.26-2.184a.75.75 0 10-1.299-.75l-1.28 2.217-.29-1.088a.75.75 0 10-1.45.388l.68 2.537-1.63 2.822-1.66-2.874.667-2.486A.75.75 0 009.58 4.77l-.278 1.037-1.26-2.184a.75.75 0 00-1.3.75l1.28 2.217-1.088-.29a.75.75 0 00-.388 1.449l2.536.68 1.63 2.822H7.393l-1.82-1.82a.75.75 0 00-1.06 1.06l.759.76H2.75a.75.75 0 100 1.5h2.56l-.796.796a.75.75 0 101.06 1.06l1.857-1.856h3.302l-1.661 2.877-2.537.68a.75.75 0 10.389 1.449l1.087-.292-1.27 2.2a.75.75 0 001.3.75l1.25-2.166.277 1.037a.75.75 0 101.45-.388l-.667-2.486 1.67-2.893 1.64 2.84-.68 2.537a.75.75 0 101.45.388l.29-1.087 1.27 2.199a.75.75 0 101.3-.75l-1.25-2.165 1.037.278a.75.75 0 00.388-1.45l-2.486-.665-1.67-2.893z">
        </path>
    </symbol>
    <symbol id="bus" viewBox="0 0 24 24">
        <path
            d="M5.22 18.527H3.127a1 1 0 01-.995-.894c-.675-6.335 1.454-9.997 1.543-10.146a1 1 0 01.856-.481h.484V5a1 1 0 011-1h11.983a1 1 0 011 1v2.006h.313c.308 0 .598.14.787.382 2.534 3.22 1.885 9.959 1.857 10.24-.053.51-.483.899-.995.899h-2.18a2.5 2.5 0 01-4.56 0H9.78a2.5 2.5 0 01-4.56 0zm9.004-2.064a2.5 2.5 0 014.552 0h1.217c.089-1.993 0-5.507-1.201-7.458H5.147c-.447 1.01-1.216 2.648-1.15 7.458h1.226a2.5 2.5 0 014.552 0h4.449zM7 7.008h10V6H7v1.008zm.5 11.242a.75.75 0 100-1.5.75.75 0 000 1.5zm9 0a.75.75 0 100-1.5.75.75 0 000 1.5zm-9.498-7.248h5.001a1 1 0 010 2H7.002a1 1 0 010-2zm7.999.005h2.011a1 1 0 010 2h-2.011a1 1 0 110-2z">
        </path>
    </symbol>
    <symbol id="hike" viewBox="0 0 24 24">
        <path
            d="M13.497 10h1.492a1 1 0 010 2h-2a1 1 0 01-.868-.503l-1.815-2.405-.32.899.003.009 3.949 10.675a1 1 0 01-1.892.651l-3.107-8.4-2.994 8.397a1 1 0 01-1.891-.65l4.988-13.99a1 1 0 011.719-.31l.002.002.045.06L13.497 10zm-7.55 2.33a1 1 0 11-1.892-.652l2.002-5.996a1 1 0 111.89.652l-2 5.996zm11.023 8.874a1 1 0 11-1.956-.416l2.98-13.985a1 1 0 111.956.416l-2.98 13.985zM10.499 5a1.5 1.5 0 110-3 1.5 1.5 0 010 3z">
        </path>
    </symbol>
    <symbol id="calendar" viewBox="0 0 24 24">
        <path
            d="M18 5h2a1 1 0 011 1v14a1 1 0 01-1 1H4a1 1 0 01-1-1V6a1 1 0 011-1h2v1a2 2 0 104 0V5h4v1a2 2 0 104 0V5zM4.5 9v10.5h15V9h-15zM7 11.5h2v2H7v-2zm0 4h2v2H7v-2zm4-4h2v2h-2v-2zm0 4h2v2h-2v-2zm4-4h2v2h-2v-2zm0 4h2v2h-2v-2zM8 3a1 1 0 011 1v2a1 1 0 11-2 0V4a1 1 0 011-1zm8 0a1 1 0 011 1v2a1 1 0 01-2 0V4a1 1 0 011-1z">
        </path>
    </symbol>
    <symbol id="camera" viewBox="0 0 24 24">
        <path
            d="M3 7h3l1.703-2.555A1 1 0 018.535 4h6.933a1 1 0 01.833.446L18 7h3a1 1 0 011 1v11a1 1 0 01-1 1H3a1 1 0 01-1-1V8a1 1 0 011-1zm1 11h16V9h-2.534a1 1 0 01-.832-.446L14.933 6H9.07L7.367 8.555A1 1 0 016.535 9H4v9zm8 0a5 5 0 110-10 5 5 0 010 10zm0-2a3 3 0 100-6 3 3 0 000 6z">
        </path>
    </symbol>
    <symbol id="sun" viewBox="0 0 24 24">
        <path
            d="M12 15a3 3 0 100-6 3 3 0 000 6zm0 2a5 5 0 110-10 5 5 0 010 10zm0-15a1 1 0 011 1v2a1 1 0 01-2 0V3a1 1 0 011-1zm0 16a1 1 0 011 1v2a1 1 0 01-2 0v-2a1 1 0 011-1zm7.071-13.071a1 1 0 010 1.414l-1.414 1.414a1 1 0 11-1.414-1.414l1.414-1.414a1 1 0 011.414 0zM7.757 16.243a1 1 0 010 1.414L6.343 19.07a1 1 0 11-1.414-1.414l1.414-1.414a1 1 0 011.414 0v.001zM22 12a1 1 0 01-1 1h-2a1 1 0 010-2h2a1 1 0 011 1zM6 12a1 1 0 01-1 1H3a1 1 0 010-2h2a1 1 0 011 1zm13.071 7.071a1 1 0 01-1.414 0l-1.414-1.414a1 1 0 111.414-1.414l1.414 1.414a1 1 0 010 1.414zM7.757 7.757a1 1 0 01-1.414 0L4.93 6.343A1 1 0 016.343 4.93l1.414 1.414a1 1 0 010 1.414v-.001z">
        </path>
    </symbol>
    <symbol id="rowing" viewBox="0 0 24 24">
        <path
            d="M6.574 7.955L5.05 7.04a.997.997 0 01-.313-.212L3.322 5.414a1 1 0 010-1.414l.707-.707a1 1 0 011.414 0l1.415 1.414c.088.09.157.19.205.299l.88 1.466L9.017 7.55a17.933 17.933 0 0110.82-4.53.975.975 0 01.264-.015h.027l-.003.003a1 1 0 01.885 1.17 17.847 17.847 0 01-4.526 10.855l1.004 1.007 1.513.907c.114.05.22.12.313.213l1.415 1.414a1 1 0 010 1.414l-.707.707a1 1 0 01-1.415 0l-1.414-1.414a.998.998 0 01-.206-.298l-.878-1.467-1.054-1.056A17.848 17.848 0 014 20.99a1 1 0 01-.958-1.288 17.931 17.931 0 014.55-10.727l-1.018-1.02zm2.743 2.75a3 3 0 003.991 4.003l-3.99-4.002zm1.43-1.423l3.991 4a3 3 0 00-3.992-4zm6.171 1.668a15.816 15.816 0 001.94-5.765 15.88 15.88 0 00-5.73 1.932 5.007 5.007 0 013.79 3.833zm-5.937 5.935a5.007 5.007 0 01-3.835-3.8 15.891 15.891 0 00-1.945 5.74 15.817 15.817 0 005.78-1.94z">
        </path>
    </symbol>
    <symbol id="map" viewBox="0 0 24 24">
        <path
            d="M19.555 4a.341.341 0 00-.137.021l-4.751 1.844L9.333 4l-5.01 1.688A.454.454 0 004 6.115v13.44a.447.447 0 00.582.424l4.751-1.844L14.667 20l5.013-1.685a.458.458 0 00.32-.43V4.445A.447.447 0 0019.555 4zm-4.888 14.223l-5.334-1.871V5.777l5.334 1.871v10.575z">
        </path>
    </symbol>
    <symbol id="microphone" viewBox="0 0 24 24">
        <path
            d="M17 11v-1a1 1 0 012 0v1a7.002 7.002 0 01-6 6.93V21a1 1 0 01-2 0v-3.07A7.002 7.002 0 015 11v-1a1 1 0 112 0v1a5 5 0 0010 0zM8 6a4 4 0 118 0v5a4 4 0 11-8 0V6z">
        </path>
    </symbol>
    <symbol id="fixit" viewBox="0 0 24 24">
        <path
            d="M12.458 10.19l-1.985-1.988A3.857 3.857 0 006.857 3a.553.553 0 00-.39.944l1.69 1.688-.5 1.863-1.864.5-1.622-1.623A.686.686 0 003 6.857a3.857 3.857 0 005.202 3.616l1.988 1.985-.787.788-.33-.01a1.286 1.286 0 00-.948.377l-4.75 4.756c-.5.503-.5 1.317.002 1.818l.433.434a1.286 1.286 0 001.817.001l4.758-4.751c.25-.25.387-.593.376-.947l-.008-.3.803-.803 6.813 6.801a1.286 1.286 0 001.817 0l.433-.435a1.287 1.287 0 00.002-1.818l-6.8-6.813 3.688-3.689 1.492-.248c.443-.074.815-.374.982-.79l.895-2.237a.5.5 0 00-.111-.54l-.82-.819a.5.5 0 00-.539-.11l-2.236.894c-.417.167-.717.54-.79.982l-.255 1.522-3.669 3.67z">
        </path>
    </symbol>
</svg>